<svg width="42" height="42" viewBox="0 0 42 42" fill="none" xmlns="http://www.w3.org/2000/svg">
<circle cx="3.34783" cy="3.34783" r="3.34783" transform="matrix(-1 0 0 1 35.2283 27.087)" stroke="#0D9488" stroke-width="0.5"/>
<circle cx="3.34783" cy="3.34783" r="3.34783" transform="matrix(-1 0 0 1 13.8022 27.087)" stroke="#0D9488" stroke-width="0.5"/>
<path d="M14.3044 12.8587L14.3043 8C14.3043 7.44772 14.7521 7 15.3043 7H39.25C39.8023 7 40.25 7.44772 40.25 8V24.5761C40.25 25.0383 39.8753 25.4131 39.413 25.4131V25.4131M14.3044 12.8587L14.2293 25.4131M14.3044 12.8587H10.1195M5.76642 29.9094H2.75C2.19772 29.9094 1.75 29.4617 1.75 28.9094V22.0652M14.9418 29.9094H18.3391M27.2157 29.9094H24.3478M36.2878 29.9094C36.2878 29.9094 38.0976 29.9094 39.2572 29.9094V29.9094C39.3433 29.9094 39.413 29.8397 39.413 29.7536V25.4131M39.413 25.4131H24.3478M14.3043 25.4131H14.2293M24.3478 29.9094V25.4131M24.3478 29.9094H18.3391M24.3478 25.4131H18.3391M18.3391 29.9094V25.4131M18.3391 25.4131H14.2293M10.1195 12.8587H7.6087L3.21447 17.2529C2.27679 18.1906 1.75 19.4624 1.75 20.7885V22.0652M10.1195 12.8587V21.0652C10.1195 21.6175 9.67183 22.0652 9.11955 22.0652H1.75" stroke="#0D9488" stroke-width="0.5" stroke-linecap="round" stroke-linejoin="round"/>
<path d="M24.4213 19.4143C24.6335 19.4151 24.8437 19.3738 25.0397 19.2929C25.2358 19.2119 25.4139 19.093 25.5638 18.9428L27.2139 17.2916C27.2723 17.2357 27.35 17.2046 27.4307 17.2046C27.5115 17.2046 27.5891 17.2357 27.6475 17.2916L29.3033 18.9473C29.453 19.0977 29.6311 19.2169 29.8271 19.2981C30.0232 19.3793 30.2334 19.4208 30.4457 19.4202H30.7687L28.6777 21.5113C28.3641 21.8242 27.9391 22 27.4961 22C27.053 22 26.6281 21.8242 26.3144 21.5113L24.2192 19.4157L24.4213 19.4143Z" fill="#0D9488"/>
<path d="M30.4453 13.5789C30.2331 13.5783 30.0229 13.6198 29.8268 13.701C29.6307 13.7822 29.4526 13.9014 29.3029 14.0518L27.6471 15.7079C27.5896 15.7653 27.5116 15.7975 27.4304 15.7975C27.3491 15.7975 27.2712 15.7653 27.2136 15.7079L25.5638 14.0581C25.4142 13.9075 25.2361 13.7881 25.04 13.7069C24.8439 13.6256 24.6336 13.5841 24.4213 13.5848H24.2227L26.3179 11.4896C26.4731 11.3344 26.6573 11.2112 26.86 11.1272C27.0628 11.0432 27.2801 11 27.4996 11C27.719 11 27.9363 11.0432 28.1391 11.1272C28.3418 11.2112 28.526 11.3344 28.6812 11.4896L30.7687 13.5789H30.4453Z" fill="#0D9488"/>
<path d="M22.4896 15.3183L23.7557 14.0522C23.7843 14.0638 23.8148 14.07 23.8456 14.0703H24.4214C24.721 14.071 25.0081 14.19 25.2205 14.4014L26.8703 16.0502C27.0189 16.1985 27.2203 16.2818 27.4302 16.2818C27.6401 16.2818 27.8415 16.1985 27.9901 16.0502L29.6462 14.3951C29.8585 14.1836 30.1457 14.0645 30.4453 14.0637H31.1521C31.1812 14.063 31.21 14.0572 31.2371 14.0466L32.5113 15.3183C32.8242 15.6319 33 16.0569 33 16.4999C33 16.943 32.8242 17.3679 32.5113 17.6815L31.2399 18.9529C31.2129 18.9421 31.184 18.9363 31.1549 18.9358H30.4453C30.1457 18.9349 29.8585 18.8158 29.6462 18.6044L27.9904 16.9486C27.6911 16.6496 27.1693 16.6496 26.8703 16.9486L25.2205 18.5981C25.0081 18.8095 24.721 18.9284 24.4214 18.9292H23.8456C23.8148 18.9294 23.7842 18.9356 23.7557 18.9473L22.4896 17.6812C22.3344 17.526 22.2112 17.3418 22.1272 17.1391C22.0432 16.9363 22 16.719 22 16.4996C22 16.2801 22.0432 16.0628 22.1272 15.8601C22.2112 15.6573 22.3344 15.4731 22.4896 15.3179" fill="#0D9488"/>
</svg>
